<svg id="visual" viewBox="0 0 900 600" width="900" height="600" xmlns="http://www.w3.org/2000/svg" xmlns:xlink="http://www.w3.org/1999/xlink" version="1.1"><rect x="0" y="0" width="900" height="600" fill="#ffffff"></rect><path d="M0 329L45 329L45 329L90 329L90 329L135 329L135 329L180 329L180 329L225 329L225 329L270 329L270 329L315 329L315 329L360 329L360 329L405 329L405 329L450 329L450 329L495 329L495 329L540 329L540 329L585 329L585 329L630 329L630 329L675 329L675 329L720 329L720 329L765 329L765 329L810 329L810 329L855 329L855 329L900 329L900 329L900 601L900 601L855 601L855 601L810 601L810 601L765 601L765 601L720 601L720 601L675 601L675 601L630 601L630 601L585 601L585 601L540 601L540 601L495 601L495 601L450 601L450 601L405 601L405 601L360 601L360 601L315 601L315 601L270 601L270 601L225 601L225 601L180 601L180 601L135 601L135 601L90 601L90 601L45 601L45 601L0 601Z" fill="#adbecf" stroke-linecap="square" stroke-linejoin="miter"></path></svg>